<svg width="25" height="25" viewBox="0 0 25 25" fill="none" xmlns="http://www.w3.org/2000/svg">
<path d="M12.9643 4.46777C8.67329 4.46777 5.18213 7.95893 5.18213 12.2499C5.18213 16.5409 8.67329 20.032 12.9643 20.032C14.733 20.032 16.4638 19.4226 17.839 18.3163C17.983 18.2002 18.0059 17.9898 17.8898 17.8453C17.7737 17.7013 17.5633 17.6784 17.4188 17.7945C16.144 18.8203 14.6035 19.3623 12.9637 19.3623C9.04166 19.3623 5.85134 16.1714 5.85134 12.2499C5.85134 8.32842 9.04222 5.13754 12.9643 5.13754C16.8863 5.13754 20.0766 8.32786 20.0766 12.2499C20.0766 12.2566 20.0627 12.9297 19.5698 13.5945C18.9302 14.4568 17.7564 14.9385 16.1641 14.9971V11.6477C16.1641 10.0302 14.8485 8.71465 13.2311 8.71465H12.1388C10.5213 8.71465 9.20575 10.0302 9.20575 11.6477V12.74C9.20575 14.3574 10.5213 15.673 12.1388 15.673H15.8292C18.3358 15.673 19.5391 14.7599 20.1079 13.9935C20.7391 13.1424 20.7464 12.2856 20.7464 12.2499C20.7464 7.95893 17.2552 4.46777 12.9643 4.46777ZM9.87608 12.74V11.6477C9.87608 10.3997 10.8913 9.38442 12.1393 9.38442H13.2316C14.4796 9.38442 15.4949 10.3997 15.4949 11.6477V15.0032H12.1393C10.8913 15.0032 9.87608 13.988 9.87608 12.74Z" fill="#1E1E1E"/>
</svg>
