<svg width="25" height="25" viewBox="0 0 25 25" fill="none" xmlns="http://www.w3.org/2000/svg">
<path d="M16.5675 12.2138C16.3733 12.2138 16.2159 12.0564 16.2159 11.8622V8.4592C16.2159 6.77696 14.7513 5.40785 12.9508 5.40785H11.5504C9.74985 5.40785 8.28529 6.77641 8.28529 8.4592V11.8622C8.28529 12.0564 8.12789 12.2138 7.93366 12.2138C7.73943 12.2138 7.58203 12.0564 7.58203 11.8622V8.4592C7.58203 6.38906 9.3625 4.70459 11.5504 4.70459H12.9508C15.1387 4.70459 16.9191 6.38906 16.9191 8.4592V11.8622C16.9191 12.0564 16.7618 12.2138 16.5675 12.2138Z" fill="#6B336F"/>
<path d="M15.7571 20.8482H8.74351C7.33085 20.8482 6.18109 19.699 6.18109 18.2863L6.17941 14.1438C6.17941 13.7738 6.17885 11.9247 6.18053 11.8834C6.1889 11.6808 6.35467 11.5161 6.55783 11.5094C6.59913 11.5083 8.5889 11.5083 8.81551 11.5083H15.6723C15.6946 11.5083 17.8875 11.5083 17.9344 11.5094C18.1426 11.515 18.3117 11.6813 18.3195 11.8873C18.3212 11.9319 18.3206 13.9228 18.3206 14.15L18.319 18.2863C18.319 19.699 17.1697 20.8482 15.7571 20.8482ZM6.88267 12.2121C6.88211 12.5889 6.88211 13.2832 6.88267 14.1438L6.88434 18.2863C6.8849 19.3111 7.71876 20.145 8.74351 20.145H15.7565C16.7813 20.145 17.6157 19.3111 17.6157 18.2863L17.6174 14.15C17.6174 13.2854 17.6174 12.5883 17.6174 12.2121C17.2429 12.2116 16.543 12.2116 15.6723 12.2116H8.81551C7.95318 12.2116 7.25941 12.2116 6.88267 12.2121Z" fill="#1E1E1E"/>
<path d="M13.7757 18.0212H10.7243C10.5496 18.0212 10.4078 17.8794 10.4078 17.7047V14.6534C10.4078 14.4787 10.5496 14.3369 10.7243 14.3369H13.7757C13.9503 14.3369 14.0921 14.4787 14.0921 14.6534V17.7047C14.0921 17.8794 13.9503 18.0212 13.7757 18.0212ZM11.0408 17.3883H13.4592V14.9698H11.0408V17.3883Z" fill="#6B336F"/>
</svg>
